<svg width="42" height="36" viewBox="0 0 42 36" fill="none" xmlns="http://www.w3.org/2000/svg">
<path d="M2 9.29167L7.67056 14.0171C8.04496 14.3292 8.5169 14.5 9.00427 14.5H32.4956C32.9831 14.5 33.455 14.3292 33.8294 14.0171L39.5 9.29167M9.29167 21.7917H9.3125M32.2083 21.7917H32.2292M12.7514 2H28.7487C30.244 2 31.6246 2.80119 32.3662 4.09942L38.4021 14.6619C39.1215 15.921 39.5 17.346 39.5 18.7965V31.1667C39.5 32.3173 38.5673 33.25 37.4167 33.25H35.3333C34.1827 33.25 33.25 32.3173 33.25 31.1667V29.0833H8.25V31.1667C8.25 32.3173 7.31725 33.25 6.16667 33.25H4.08333C2.93275 33.25 2 32.3173 2 31.1667V18.7965C2 17.346 2.37846 15.921 3.09798 14.6619L9.13367 4.09942C9.8755 2.80119 11.2561 2 12.7514 2ZM10.3333 21.7917C10.3333 22.3669 9.86696 22.8333 9.29167 22.8333C8.71637 22.8333 8.25 22.3669 8.25 21.7917C8.25 21.2165 8.71637 20.75 9.29167 20.75C9.86696 20.75 10.3333 21.2165 10.3333 21.7917ZM33.25 21.7917C33.25 22.3669 32.7835 22.8333 32.2083 22.8333C31.6331 22.8333 31.1667 22.3669 31.1667 21.7917C31.1667 21.2165 31.6331 20.75 32.2083 20.75C32.7835 20.75 33.25 21.2165 33.25 21.7917Z" stroke="black" stroke-width="4" stroke-linecap="round" stroke-linejoin="round"/>
</svg>
