<svg width="64" height="64" viewBox="0 0 64 64" fill="none" xmlns="http://www.w3.org/2000/svg">
<path d="M42 40C51.9411 40 60 31.9411 60 22C60 12.0589 51.9411 4 42 4C32.0589 4 24 12.0589 24 22C24 31.9411 32.0589 40 42 40Z" fill="#FFBD66"/>
<path fill-rule="evenodd" clip-rule="evenodd" d="M18.8747 46.7152C19.3179 46.7152 19.6772 47.0793 19.6772 47.5283V50.6643C19.6772 52.0756 18.5479 53.2196 17.1549 53.2196H14.174C12.7809 53.2196 11.6516 52.0756 11.6516 50.6643V47.5283C11.6516 47.0793 12.011 46.7152 12.4542 46.7152C12.8974 46.7152 13.2568 47.0793 13.2568 47.5283V50.6643C13.2568 51.1775 13.6674 51.5935 14.174 51.5935H17.1549C17.6615 51.5935 18.0721 51.1775 18.0721 50.6643V47.5283C18.0721 47.0793 18.4314 46.7152 18.8747 46.7152ZM54.1872 46.7152C54.6304 46.7152 54.9898 47.0793 54.9898 47.5283V50.6643C54.9898 52.0756 53.8605 53.2196 52.4674 53.2196H49.4865C48.0935 53.2196 46.9642 52.0756 46.9642 50.6643V47.5283C46.9642 47.0793 47.3235 46.7152 47.7667 46.7152C48.21 46.7152 48.5693 47.0793 48.5693 47.5283V50.6643C48.5693 51.1775 48.9799 51.5935 49.4865 51.5935H52.4674C52.974 51.5935 53.3846 51.1775 53.3846 50.6643V47.5283C53.3846 47.0793 53.744 46.7152 54.1872 46.7152ZM14.6268 27.4402C14.9402 27.7577 14.9402 28.2725 14.6268 28.59L11.0707 32.1926C10.4149 32.857 10.0465 33.758 10.0465 34.6976L10.0464 35.5231L11.9478 36.6471L14.3385 32.893C14.469 32.6879 14.6795 32.5546 14.9109 32.5186L15.0517 32.5089L15.1948 32.5237L22.8264 33.9908C23.2762 34.0773 23.5707 34.512 23.4842 34.9618C23.4074 35.3616 23.0554 35.6387 22.6622 35.6346L22.5133 35.6196L15.4343 34.2586L13.9874 36.5319L17.7076 36.9475C17.9018 36.9692 18.0804 37.0585 18.2137 37.1973L18.3047 37.3103L20.3663 40.3896C20.6211 40.7702 20.5192 41.2853 20.1386 41.5401C19.8003 41.7666 19.3557 41.7112 19.0821 41.4288L18.9881 41.3124L17.1393 38.5511L13.1647 38.1093C13.1103 38.1032 13.0577 38.092 13.0073 38.0761L12.9175 38.2168C12.704 38.5525 12.2879 38.6837 11.9276 38.5487L11.7956 38.4855L10.0464 37.4512L10.0465 43.405C10.0465 43.437 10.0722 43.463 10.1038 43.463H56.5375C56.5692 43.463 56.5949 43.437 56.5949 43.405V34.6976C56.5949 33.758 56.2265 32.857 55.5707 32.1926L52.0146 28.59C51.7012 28.2725 51.7012 27.7577 52.0146 27.4402C52.328 27.1227 52.8362 27.1227 53.1496 27.4402L56.7057 31.0428C57.6625 32.0121 58.2 33.3268 58.2 34.6976V43.405C58.2 44.3351 57.4557 45.0891 56.5375 45.0891H10.1038C9.18571 45.0891 8.44141 44.3351 8.44141 43.405V34.6976C8.44141 33.3268 8.97893 32.0121 9.93574 31.0428L13.4918 27.4402C13.8052 27.1227 14.3134 27.1227 14.6268 27.4402ZM50.1744 35.3326C51.9474 35.3326 53.3846 36.7886 53.3846 38.5848C53.3846 40.3809 51.9474 41.837 50.1744 41.837C48.4014 41.837 46.9642 40.3809 46.9642 38.5848C46.9642 36.7886 48.4014 35.3326 50.1744 35.3326ZM50.1744 36.9587C49.2879 36.9587 48.5693 37.6867 48.5693 38.5848C48.5693 39.4828 49.2879 40.2109 50.1744 40.2109C51.0609 40.2109 51.7795 39.4828 51.7795 38.5848C51.7795 37.6867 51.0609 36.9587 50.1744 36.9587ZM43.4816 37.7717C43.8979 37.7717 44.2355 38.1357 44.2355 38.5848C44.2355 39.0338 43.8979 39.3978 43.4816 39.3978H28.4032C27.9868 39.3978 27.6493 39.0338 27.6493 38.5848C27.6493 38.1357 27.9868 37.7717 28.4032 37.7717H43.4816ZM53.645 32.0804C53.9444 32.0804 54.1872 32.4517 54.1872 32.9097C54.1872 33.3677 53.9444 33.739 53.645 33.739H26.5329C26.2334 33.739 25.9907 33.3677 25.9907 32.9097C25.9907 32.4517 26.2334 32.0804 26.5329 32.0804H53.645ZM49.6585 27.4294C50.1017 27.4294 50.461 27.7934 50.461 28.2424C50.461 28.6915 50.1017 29.0555 49.6585 29.0555H16.9829C16.5397 29.0555 16.1804 28.6915 16.1804 28.2424C16.1804 27.7934 16.5397 27.4294 16.9829 27.4294H49.6585ZM12.4542 23.9499C12.8974 23.9499 13.2568 24.3139 13.2568 24.7629C13.2568 25.212 12.8974 25.576 12.4542 25.576H10.8491C10.4058 25.576 10.0465 25.94 10.0465 26.389C10.0465 26.8381 10.4058 27.2021 10.8491 27.2021C11.2923 27.2021 11.6516 27.5661 11.6516 28.0151C11.6516 28.4642 11.2923 28.8282 10.8491 28.8282C9.51936 28.8282 8.44141 27.7361 8.44141 26.389C8.44141 25.0419 9.51936 23.9499 10.8491 23.9499H12.4542ZM55.7923 23.9499C57.122 23.9499 58.2 25.0419 58.2 26.389C58.2 27.7361 57.122 28.8282 55.7923 28.8282C55.3491 28.8282 54.9898 28.4642 54.9898 28.0151C54.9898 27.5661 55.3491 27.2021 55.7923 27.2021C56.2356 27.2021 56.5949 26.8381 56.5949 26.389C56.5949 25.94 56.2356 25.576 55.7923 25.576H54.1872C53.744 25.576 53.3846 25.212 53.3846 24.7629C53.3846 24.3139 53.744 23.9499 54.1872 23.9499H55.7923ZM45.8838 11.7542C47.8303 11.7542 49.5271 13.0963 49.9992 15.0094L52.5581 25.3788C52.6656 25.8144 52.4042 26.2558 51.9742 26.3647C51.5442 26.4737 51.1084 26.2088 51.0009 25.7732L48.442 15.4038C48.1486 14.2145 47.0938 13.3802 45.8838 13.3802H20.7576C19.5476 13.3802 18.4928 14.2145 18.1994 15.4038L15.6405 25.7732C15.533 26.2088 15.0972 26.4737 14.6672 26.3647C14.2372 26.2558 13.9758 25.8144 14.0833 25.3788L16.6422 15.0094C17.1143 13.0963 18.811 11.7542 20.7576 11.7542H45.8838ZM43.7539 21.5107C45.9701 21.5107 47.7667 23.3308 47.7667 25.576C47.7667 26.025 47.4074 26.389 46.9642 26.389C46.5209 26.389 46.1616 26.025 46.1616 25.576C46.1616 24.2289 45.0837 23.1368 43.7539 23.1368C42.4242 23.1368 41.3463 24.2289 41.3463 25.576C41.3463 26.025 40.987 26.389 40.5437 26.389C40.1005 26.389 39.7412 26.025 39.7412 25.576C39.7412 23.3308 41.5377 21.5107 43.7539 21.5107Z" fill="#383838"/>
</svg>
