<svg width="48" height="48" viewBox="0 0 48 48" fill="none" xmlns="http://www.w3.org/2000/svg">
<path d="M31.5714 29.428C39.1455 29.428 45.2854 23.288 45.2854 15.714C45.2854 8.13997 39.1455 2 31.5714 2C23.9974 2 17.8574 8.13997 17.8574 15.714C17.8574 23.288 23.9974 29.428 31.5714 29.428Z" fill="#D480FF"/>
<path d="M20.3496 20.8101C20.453 20.7062 20.5759 20.6238 20.7112 20.5675C20.8465 20.5112 20.9916 20.4821 21.1382 20.4819C21.2847 20.4817 21.4299 20.5105 21.5654 20.5664C21.7008 20.6224 21.8239 20.7045 21.9276 20.8081L28.2316 27.1111C28.3352 27.2148 28.4173 27.3379 28.4733 27.4733C28.5292 27.6088 28.5579 27.7539 28.5577 27.9005C28.5576 28.0471 28.5285 28.1921 28.4722 28.3275C28.4159 28.4628 28.3334 28.5857 28.2296 28.6891L13.2296 43.6891C13.126 43.7926 13.0031 43.8748 12.8678 43.9308C12.7325 43.9869 12.5875 44.0157 12.4411 44.0157C12.2946 44.0157 12.1496 43.9869 12.0143 43.9308C11.8791 43.8748 11.7561 43.7926 11.6526 43.6891L5.34959 37.3871C5.2461 37.2835 5.16402 37.1605 5.10806 37.0252C5.0521 36.8898 5.02334 36.7448 5.02344 36.5984C5.02353 36.4519 5.05247 36.3069 5.1086 36.1717C5.16474 36.0364 5.24696 35.9136 5.35059 35.8101L20.3496 20.8101ZM21.1366 22.0701L6.61059 36.5981L12.4416 42.4281L26.9676 27.9021L21.1376 22.0721L21.1366 22.0701Z" fill="#383838"/>
<path d="M24.1352 20.1929C24.2386 20.0891 24.3615 20.0066 24.4968 19.9503C24.6321 19.894 24.7772 19.8649 24.9238 19.8647C25.0703 19.8646 25.2155 19.8933 25.3509 19.9492C25.4864 20.0052 25.6095 20.0873 25.7132 20.1909L28.8642 23.3429C28.9677 23.4465 29.0497 23.5695 29.1057 23.7048C29.1617 23.8401 29.1904 23.9852 29.1903 24.1316C29.1902 24.278 29.1613 24.423 29.1052 24.5583C29.049 24.6936 28.9668 24.8164 28.8632 24.9199L27.2842 26.4999C27.1806 26.6035 27.0577 26.6856 26.9224 26.7417C26.7871 26.7977 26.6421 26.8266 26.4957 26.8266C26.3492 26.8266 26.2042 26.7977 26.0689 26.7417C25.9336 26.6856 25.8107 26.6035 25.7072 26.4999L22.5552 23.3499C22.4515 23.2463 22.3693 23.1232 22.3133 22.9878C22.2572 22.8524 22.2284 22.7073 22.2285 22.5607C22.2286 22.4141 22.2576 22.269 22.3138 22.1337C22.37 21.9983 22.4524 21.8754 22.5562 21.7719L24.1352 20.1929ZM24.9222 21.4529L23.8172 22.5589L26.4962 25.2379L27.6012 24.1329L24.9222 21.4529Z" fill="#383838"/>
<path d="M35.757 8.3L39.797 6.358C40.221 6.155 40.727 6.238 41.062 6.568L42.548 8.032C42.887 8.365 42.976 8.877 42.771 9.306L40.855 13.321L37.561 14.661L28.621 23.517C28.4116 23.7248 28.1284 23.8412 27.8334 23.8407C27.5384 23.8401 27.2556 23.7226 27.047 23.514L25.471 21.938C25.2779 21.7446 25.1626 21.487 25.1469 21.2142C25.1313 20.9413 25.2163 20.6722 25.386 20.458L25.476 20.358L34.386 11.522L35.757 8.3ZM40.211 7.767L36.876 9.36901L35.607 12.349L26.734 21.149L27.838 22.253L36.748 13.427L39.788 12.19L41.358 8.899L40.211 7.767ZM20.832 25.571C20.9314 25.4753 21.0626 25.4198 21.2004 25.415C21.3383 25.4103 21.473 25.4567 21.5787 25.5453C21.6845 25.6339 21.7537 25.7584 21.7731 25.895C21.7926 26.0315 21.7608 26.1704 21.684 26.285L21.619 26.362L10.442 37.432C10.3425 37.5274 10.2112 37.5826 10.0735 37.5871C9.93573 37.5916 9.80116 37.5451 9.69564 37.4564C9.59011 37.3677 9.52106 37.2432 9.50174 37.1067C9.48243 36.9703 9.51422 36.8315 9.591 36.717L9.655 36.64L20.832 25.571ZM22.647 27.355C22.7468 27.2615 22.8774 27.2078 23.0141 27.204C23.1508 27.2003 23.2841 27.2468 23.3888 27.3348C23.4936 27.4228 23.5624 27.5461 23.5823 27.6814C23.6023 27.8167 23.5719 27.9546 23.497 28.069L23.433 28.146L12.256 39.216C12.1565 39.3114 12.0252 39.3666 11.8875 39.3711C11.7497 39.3756 11.6152 39.3291 11.5096 39.2404C11.4041 39.1517 11.3351 39.0272 11.3157 38.8907C11.2964 38.7543 11.3282 38.6155 11.405 38.501L11.47 38.424L22.647 27.355ZM11.257 3C15.265 3 18.514 6.243 18.514 10.243C18.514 11.029 18.389 11.786 18.157 12.494C18.1844 12.5072 18.2105 12.523 18.235 12.541L18.325 12.618L23.102 17.386C23.1694 17.4532 23.2228 17.533 23.2593 17.6208C23.2958 17.7087 23.3145 17.8029 23.3145 17.898C23.3145 17.9931 23.2958 18.0873 23.2593 18.1752C23.2228 18.263 23.1694 18.3428 23.102 18.41C22.9802 18.5313 22.8193 18.6055 22.6479 18.6194C22.4766 18.6333 22.3058 18.5861 22.166 18.486L22.076 18.41L17.536 13.878C16.9382 14.9028 16.0993 15.7662 15.092 16.393L18.24 19.522C18.524 19.804 18.525 20.262 18.242 20.546C18.1204 20.6676 17.9597 20.7422 17.7883 20.7564C17.6169 20.7707 17.446 20.7238 17.306 20.624L17.216 20.548L13.772 17.126L13.715 17.06C12.9264 17.3428 12.0948 17.487 11.257 17.486C7.249 17.486 4 14.243 4 10.243C4 9.267 4.193 8.336 4.544 7.486L4.541 7.481C4.56 7.421 4.613 7.301 4.7 7.122C4.787 6.943 4.98 6.655 5.28 6.259L10.36 11.209L12.52 9.098L7.517 4.192C7.985 3.855 8.285 3.648 8.417 3.57C8.549 3.493 8.693 3.439 8.85 3.408L8.55 3.521C9.41071 3.17581 10.3297 2.99895 11.257 3ZM11.257 4.449C10.837 4.449 10.426 4.493 10.031 4.579L14.066 8.584C14.326 8.84 14.351 9.24301 14.142 9.52701L14.064 9.617L10.864 12.747C10.7272 12.8801 10.5436 12.954 10.3528 12.9529C10.1619 12.9518 9.97921 12.8757 9.844 12.741L5.684 8.616C5.4323 9.48071 5.38542 10.3921 5.54708 11.2781C5.70873 12.1641 6.07448 13.0002 6.61535 13.7203C7.15622 14.4404 7.85734 15.0246 8.66317 15.4268C9.46901 15.8289 10.3574 16.0378 11.258 16.037C12.7961 16.0383 14.2717 15.4287 15.3603 14.3421C16.449 13.2556 17.0614 11.7811 17.063 10.243C17.0622 9.48134 16.9114 8.72728 16.6192 8.0239C16.327 7.32051 15.8991 6.68156 15.36 6.14354C14.8208 5.60552 14.181 5.17896 13.477 4.88821C12.773 4.59746 12.0187 4.44822 11.257 4.449ZM44.983 37.68C44.983 33.672 41.74 30.423 37.74 30.423C36.954 30.423 36.197 30.548 35.488 30.78C35.4748 30.7526 35.459 30.7265 35.441 30.702L35.365 30.612L30.597 25.835C30.5298 25.7676 30.45 25.7142 30.3622 25.6777C30.2743 25.6413 30.1801 25.6225 30.085 25.6225C29.9899 25.6225 29.8957 25.6413 29.8078 25.6777C29.72 25.7142 29.6402 25.7676 29.573 25.835C29.4516 25.9567 29.3772 26.1175 29.3631 26.2889C29.349 26.4603 29.3961 26.6311 29.496 26.771L29.573 26.861L34.104 31.401C33.0796 31.9989 32.2166 32.8378 31.59 33.845L28.46 30.697C28.393 30.6297 28.3134 30.5762 28.2257 30.5396C28.138 30.5031 28.0439 30.4842 27.9489 30.484C27.8539 30.4838 27.7598 30.5023 27.672 30.5385C27.5841 30.5748 27.5043 30.6279 27.437 30.695C27.3152 30.8165 27.2405 30.9772 27.226 31.1485C27.2116 31.3199 27.2583 31.4909 27.358 31.631L27.434 31.721L30.856 35.164L30.923 35.222C30.6402 36.0106 30.4961 36.8422 30.497 37.68C30.497 41.688 33.74 44.937 37.74 44.937C38.6855 44.9381 39.6219 44.7533 40.496 44.393L40.501 44.396C40.561 44.377 40.681 44.324 40.861 44.236C41.04 44.15 41.327 43.956 41.723 43.656L36.773 38.577L38.885 36.417L43.791 41.42C44.128 40.952 44.335 40.652 44.413 40.52C44.49 40.388 44.543 40.244 44.574 40.087L44.462 40.387C44.8069 39.5262 44.9834 38.6073 44.982 37.68H44.983ZM43.534 37.68C43.534 38.1 43.489 38.51 43.404 38.906L39.398 34.871C39.2763 34.747 39.114 34.671 38.9408 34.6568C38.7677 34.6427 38.5952 34.6914 38.455 34.794L38.365 34.873L35.237 38.073C35.1037 38.2095 35.0293 38.393 35.0301 38.5838C35.0308 38.7747 35.1066 38.9575 35.241 39.093L39.367 43.253C38.5023 43.5047 37.5909 43.5516 36.7049 43.3899C35.8189 43.2283 34.9828 42.8625 34.2627 42.3217C33.5426 41.7808 32.9584 41.0797 32.5563 40.2738C32.1541 39.468 31.9452 38.5796 31.946 37.679C31.9447 36.1409 32.5543 34.6653 33.6409 33.5767C34.7274 32.4881 36.2019 31.8756 37.74 31.874C38.5017 31.8748 39.2557 32.0256 39.9591 32.3178C40.6625 32.61 41.3014 33.0379 41.8395 33.577C42.3775 34.1162 42.804 34.756 43.0948 35.46C43.3855 36.164 43.5348 36.9183 43.534 37.68Z" fill="#383838"/>
</svg>
