<svg width="56" height="56" viewBox="0 0 56 56" fill="none" xmlns="http://www.w3.org/2000/svg">
<path d="M36.75 35C45.4485 35 52.5 27.9485 52.5 19.25C52.5 10.5515 45.4485 3.5 36.75 3.5C28.0515 3.5 21 10.5515 21 19.25C21 27.9485 28.0515 35 36.75 35Z" fill="#D480FF"/>
<path d="M14.4761 8.16309C14.6251 8.16309 14.7701 8.20309 14.8981 8.27609L14.9901 8.33709L25.3661 16.2671C25.4961 16.3661 25.5941 16.5011 25.6481 16.6541L25.6791 16.7711L28.0921 29.3341L29.9321 29.3351C30.2891 29.3351 30.5791 29.6231 30.5791 29.9771V32.4041H33.1541L33.1711 32.4051V23.4151C33.1711 22.7061 33.7511 22.1311 34.4671 22.1311H42.4691C42.9991 22.1311 43.4761 22.4511 43.6731 22.9391L46.2561 29.3491C46.3821 29.6611 46.6261 29.9121 46.9371 30.0481L50.5381 31.6201C51.0081 31.8251 51.3121 32.2861 51.3121 32.7951V41.3931C51.3121 42.1031 50.7321 42.6781 50.0161 42.6781H47.4241C47.4241 45.5141 45.1041 47.8141 42.2411 47.8141C39.3791 47.8141 37.0581 45.5141 37.0581 42.6781H33.6091C33.5377 42.6792 33.4665 42.6715 33.3971 42.6551C33.3191 42.6701 33.2371 42.6781 33.1541 42.6781H17.6221C17.6221 45.5141 15.3011 47.8141 12.4381 47.8141C9.57606 47.8141 7.25506 45.5141 7.25506 42.6781H5.96006C5.79057 42.6789 5.62259 42.6463 5.46571 42.5821C5.30883 42.5179 5.16614 42.4235 5.04578 42.3041C4.92542 42.1848 4.82976 42.0429 4.76426 41.8866C4.69877 41.7303 4.66472 41.5626 4.66406 41.3931V33.6901C4.66406 32.9801 5.24406 32.4051 5.96006 32.4051H12.4381V29.9781C12.4381 29.6241 12.7281 29.3361 13.0861 29.3361H14.9161L17.3251 17.2131L10.7271 10.9231V17.3141L11.1591 17.4191C12.3951 17.8771 13.1161 18.7531 13.1961 19.9821L13.2041 20.2171C13.2041 22.2071 11.8801 23.1821 10.2361 23.1821C8.61106 23.1821 7.35806 22.2101 7.35806 20.2171C7.35806 19.7561 7.61506 19.3821 8.08006 19.3821C8.54506 19.3821 8.79306 19.7561 8.79306 20.2171C8.79306 21.1861 9.46306 21.7881 10.2361 21.7881C11.0401 21.7881 11.8471 21.1591 11.8471 20.2171C11.8471 19.4781 11.1151 18.8271 10.0611 18.6051C9.71506 18.5331 9.45706 18.1471 9.40306 17.8091L9.39306 17.6801V9.65009L9.33906 9.60009C8.85406 9.13709 9.09406 8.36209 9.68606 8.19609L9.79406 8.17309L9.92406 8.16309H14.4761ZM12.4381 39.2101C10.5061 39.2101 8.94006 40.7631 8.94006 42.6781C8.94006 44.5921 10.5061 46.1451 12.4381 46.1451C14.3711 46.1451 15.9381 44.5921 15.9381 42.6781C15.9381 40.7631 14.3711 39.2101 12.4381 39.2101ZM42.2411 39.2101C40.3091 39.2101 38.7431 40.7631 38.7431 42.6781C38.7431 44.5921 40.3091 46.1451 42.2411 46.1451C44.1741 46.1451 45.7401 44.5921 45.7401 42.6781C45.7401 40.7631 44.1741 39.2101 42.2411 39.2101ZM34.4411 31.1061L34.4421 33.5501C34.4471 33.5961 34.4491 33.6421 34.4491 33.6891V41.3891H37.2231C37.7971 39.1791 39.8261 37.5411 42.2411 37.5411C43.3483 37.538 44.4273 37.8899 45.32 38.545C46.2126 39.2 46.8719 40.1239 47.2011 41.1811L47.2601 41.3891H50.0491V32.9301L46.5511 31.5751C46.2807 31.4572 46.0293 31.2998 45.8051 31.1081L34.4411 31.1061ZM33.1551 33.8001H5.94806V41.3041H7.44306L7.43606 41.3291C7.7405 40.2375 8.39467 39.2758 9.29821 38.5918C10.2018 37.9077 11.3048 37.5389 12.4381 37.5421C13.5328 37.539 14.6003 37.8828 15.4875 38.5242C16.3747 39.1656 17.0358 40.0716 17.3761 41.1121L17.4341 41.3041H33.1541V40.2591H21.2361C21.1054 40.258 20.9805 40.2052 20.8886 40.1123C20.7968 40.0193 20.7455 39.8938 20.7461 39.7631C20.7461 39.5231 20.9131 39.3221 21.1371 39.2761L21.2371 39.2661H33.1541L33.1551 33.8001ZM40.6411 32.4441C40.7314 32.4455 40.8182 32.4797 40.8851 32.5403C40.9521 32.601 40.9947 32.6839 41.005 32.7737C41.0153 32.8635 40.9926 32.9539 40.9411 33.0281C40.8895 33.1024 40.8128 33.1553 40.7251 33.1771L40.6401 33.1871L38.5801 33.1901C38.4897 33.1887 38.403 33.1545 38.336 33.0939C38.269 33.0332 38.2264 32.9503 38.2161 32.8605C38.2058 32.7707 38.2286 32.6803 38.2801 32.606C38.3316 32.5318 38.4084 32.4789 38.4961 32.4571L38.5811 32.4471L40.6411 32.4441ZM29.2151 30.6131H13.7571V32.4051H29.2151V30.6131ZM42.4991 23.5701H34.4421L34.4411 29.8351H44.9341L42.4991 23.5701ZM14.1891 9.46709H11.0761L18.6231 16.3261C18.7643 16.4605 18.8539 16.6403 18.8761 16.8341L18.8811 16.9491L18.8651 17.0891L16.4081 29.3341H26.6841L24.4181 17.3951L14.1891 9.46709Z" fill="#383838"/>
</svg>
