<svg width="49" height="48" viewBox="0 0 49 48" fill="none" xmlns="http://www.w3.org/2000/svg">
<path d="M30.5797 5.90466C30.7906 6.38435 30.9062 6.91248 30.9062 7.46873C30.9062 9.62498 29.1562 11.375 27 11.375C26.0734 11.375 25.2219 11.0515 24.5531 10.5125" stroke="#263238" stroke-width="3" stroke-miterlimit="10" stroke-linecap="round" stroke-linejoin="round"/>
<path d="M31.6875 36.375V28.2812C31.6875 26.8125 30.6719 25.5469 29.2344 25.2344L21.5469 23.5312L22.3594 20.764" stroke="#263238" stroke-width="3" stroke-miterlimit="10" stroke-linecap="round" stroke-linejoin="round"/>
<path d="M21.8562 16.0625L26.6094 21.0781C26.8594 21.3125 27.1719 21.4688 27.5 21.5156L33.8437 22.2969C33.9062 22.3125 33.9687 22.3125 34.0312 22.3125C34.8125 22.3125 35.4844 21.7344 35.5781 20.9375C35.6859 20.0938 35.0781 19.3125 34.2188 19.2031L28.5781 18.5L24.875 14.125C23.4844 12.4688 21.1562 11.7344 19.1578 12.5781C14.5 14.5625 10.9844 28.5625 18.4844 28.5625C21.3437 28.5625 27 29.7969 27 29.7969L28.1406 37.9688C28.3734 39.7344 29.8891 41.0625 31.6875 41.0625" stroke="#263238" stroke-width="3" stroke-miterlimit="10" stroke-linecap="round" stroke-linejoin="round"/>
<path d="M27 5.90625H31.6875C31.6875 3.75 29.5937 2 27 2H26.2188C24.0625 2 22.3125 3.75 22.3125 5.90625V6.6875C22.3125 7.26563 22.4844 7.78125 22.75 8.25H24.6562C25.9531 8.25 27 7.20312 27 5.90625Z" stroke="#263238" stroke-width="3" stroke-miterlimit="10" stroke-linecap="round" stroke-linejoin="round"/>
<path d="M17.625 41.0625C17.625 43.6562 15.5313 45.75 12.9375 45.75C11.2 45.75 9.68752 44.8094 8.87659 43.4094" stroke="#263238" stroke-width="3" stroke-miterlimit="10" stroke-linecap="round" stroke-linejoin="round"/>
<path d="M45.6187 37.4531C46.6547 38.3109 47.3125 39.6078 47.3125 41.0625C47.3125 43.6562 45.2187 45.75 42.625 45.75C40.9125 45.75 39.4172 44.8375 38.6 43.4719" stroke="#263238" stroke-width="3" stroke-miterlimit="10" stroke-linecap="round" stroke-linejoin="round"/>
<path d="M28.5625 41.0625H22.3125" stroke="#263238" stroke-width="3" stroke-miterlimit="10" stroke-linecap="round" stroke-linejoin="round"/>
<path d="M22.3125 31.6875V36.375C22.3125 38.9687 24.4063 41.0625 27 41.0625H3.5625L4.75 36.9219C5.25 35.1625 6.23906 33.6375 7.54531 32.4828" stroke="#263238" stroke-width="3" stroke-miterlimit="10" stroke-linecap="round" stroke-linejoin="round"/>
<path d="M16.0625 36.375H9.8125" stroke="#263238" stroke-width="3" stroke-miterlimit="10" stroke-linecap="round" stroke-linejoin="round"/>
<path d="M39.3437 41.0625H36.375C36.375 37.6094 39.1719 34.8125 42.625 34.8125C44.2031 34.8125 45.6562 35.4062 46.75 36.375L43.6578 39.3281C42.5 40.4375 40.9531 41.0625 39.3437 41.0625Z" stroke="#263238" stroke-width="3" stroke-miterlimit="10" stroke-linecap="round" stroke-linejoin="round"/>
<path d="M3.5625 14.5H11.375" stroke="#263238" stroke-width="3" stroke-miterlimit="10" stroke-linecap="round" stroke-linejoin="round"/>
<path d="M2 5.125H9.8125" stroke="#263238" stroke-width="3" stroke-miterlimit="10" stroke-linecap="round" stroke-linejoin="round"/>
<path d="M6.6875 2H19.1875" stroke="#263238" stroke-width="3" stroke-miterlimit="10" stroke-linecap="round" stroke-linejoin="round"/>
<path d="M41.0625 20.75H40.2812C38.9844 20.75 37.9375 19.7031 37.9375 18.4062C37.9375 17.1094 38.9844 16.0625 40.2812 16.0625H41.0625C41.9219 16.0625 42.625 16.7656 42.625 17.625V19.1875C42.625 20.0469 41.9219 20.75 41.0625 20.75Z" stroke="#263238" stroke-width="3" stroke-miterlimit="10" stroke-linecap="round" stroke-linejoin="round"/>
<path d="M28.5625 41.0625H31.6875C33.4125 41.0625 34.8125 39.6625 34.8125 37.9375V25.4375" stroke="#263238" stroke-width="3" stroke-miterlimit="10" stroke-linecap="round" stroke-linejoin="round"/>
<path d="M35.6125 20.8391C37.0469 21.1609 38.1828 22.3344 38.4062 23.8437L40.1812 35.3078" stroke="#263238" stroke-width="3" stroke-miterlimit="10" stroke-linecap="round" stroke-linejoin="round"/>
<path d="M23.0938 31.6875H11.375C10.5156 31.6875 9.8125 30.9844 9.8125 30.125C9.8125 29.2656 10.5156 28.5625 11.375 28.5625H17.625" stroke="#263238" stroke-width="3" stroke-miterlimit="10" stroke-linecap="round" stroke-linejoin="round"/>
</svg>
